<svg id="Layer_1" enable-background="new 0 0 64 64" height="512" viewBox="0 0 64 64" width="512" xmlns="http://www.w3.org/2000/svg"><path d="m11.804 45.968c-.064 0-.131-.006-.197-.02-.542-.108-.893-.636-.784-1.177 3.651-18.208 20.374-31.101 38.924-29.985.551.033.971.507.938 1.058s-.5.973-1.058.938c-17.555-1.052-33.387 11.147-36.844 28.383-.095.475-.512.803-.979.803z"/><path d="m27.478 56.588c-.459 0-.872-.318-.976-.785-1.239-5.626-1.303-11.344-.188-16.996.766-4.063 1.358-8.04.184-11.949-.672-2.237-2.189-5.08-5.601-5.917-3.052-.75-6.643-.356-9.854 1.077-.504.226-1.096-.001-1.321-.505s.001-1.096.506-1.321c3.608-1.611 7.672-2.046 11.146-1.193 3.377.829 5.877 3.416 7.039 7.285 1.305 4.34.681 8.58-.136 12.903-1.063 5.388-1.002 10.832.178 16.187.119.54-.222 1.073-.761 1.192-.073.015-.145.022-.216.022z"/><path d="m55.894 35.4c-.341 0-.672-.173-.859-.487-2.637-4.409-6.441-7.99-11.001-10.357-3.26-1.865-6.593-3.774-8.903-6.996-2.128-2.966-2.637-6.234-1.513-9.712.17-.525.732-.813 1.26-.644.525.17.813.734.644 1.259-.918 2.84-.503 5.509 1.234 7.931 2.057 2.869 5.198 4.667 8.236 6.406 4.853 2.518 8.932 6.358 11.76 11.086.283.474.129 1.088-.346 1.372-.161.097-.338.142-.512.142z"/><path d="m52.205 45.987c-.186 0-.372-.051-.54-.159-.464-.298-.599-.917-.301-1.382.343-.534.668-1.09.968-1.654.257-.488.863-.676 1.352-.415.488.258.674.864.415 1.352-.325.613-.679 1.218-1.052 1.798-.191.298-.513.46-.842.46z"/><path d="m31.934 56.977c-4.234 0-8.492-1.06-12.333-3.25-8.244-4.701-13.167-13.861-12.543-23.334.636-9.656 6.876-18.164 15.896-21.675 9.066-3.531 19.442-1.443 26.431 5.317 6.871 6.646 9.364 16.8 6.352 25.868-.175.524-.739.809-1.265.634-.524-.174-.808-.74-.634-1.265 2.772-8.343.479-17.685-5.844-23.8-6.33-6.123-16.102-8.089-24.314-4.891-8.3 3.231-14.041 11.059-14.626 19.943-.574 8.715 3.955 17.141 11.538 21.465 9.293 5.301 21.255 3.405 28.442-4.505.371-.408 1.004-.438 1.413-.068.408.372.438 1.004.067 1.413-4.841 5.33-11.677 8.148-18.58 8.148z"/><path d="m45.033 53.179c-.52 0-.959-.402-.997-.928-1.183-16.448-9.514-31.438-22.857-41.125-.447-.324-.547-.95-.222-1.396.323-.447.95-.547 1.396-.222 13.822 10.035 22.453 25.563 23.678 42.6.04.551-.375 1.03-.926 1.069-.024.001-.048.002-.072.002z"/></svg>