<?xml version="1.0" encoding="UTF-8" standalone="no"?>
<!-- Created with Inkscape (http://www.inkscape.org/) -->

<svg
   version="1.1"
   id="svg2808"
   xml:space="preserve"
   width="682.66669"
   height="682.66669"
   viewBox="0 0 682.66669 682.66669"
   xmlns="http://www.w3.org/2000/svg"
   xmlns:svg="http://www.w3.org/2000/svg"><defs
     id="defs2812"><clipPath
       clipPathUnits="userSpaceOnUse"
       id="clipPath2822"><path
         d="M 0,512 H 512 V 0 H 0 Z"
         id="path2820" /></clipPath></defs><g
     id="g2814"
     transform="matrix(1.3333333,0,0,-1.3333333,0,682.66667)"><g
       id="g2816"><g
         id="g2818"
         clip-path="url(#clipPath2822)"><g
           id="g2824"
           transform="translate(191.2417,239.0635)"><path
             d="m 0,0 v -100.801 c 1.106,-0.17 35.32,0 35.32,0"
             style="fill:none;stroke:#000000;stroke-width:14.995;stroke-linecap:round;stroke-linejoin:round;stroke-miterlimit:10;stroke-dasharray:none;stroke-opacity:1"
             id="path2826" /></g><g
           id="g2828"
           transform="translate(438.623,215.8467)"><path
             d="m 0,0 c 0,-12.813 -10.403,-23.215 -23.217,-23.215 -6.348,0 -29.309,-0.086 -29.309,-0.086 V 0 23.217 h 29.309 C -10.403,23.217 0,12.813 0,0 Z"
             style="fill:none;stroke:#000000;stroke-width:14.995;stroke-linecap:round;stroke-linejoin:round;stroke-miterlimit:10;stroke-dasharray:none;stroke-opacity:1"
             id="path2830" /></g><g
           id="g2832"
           transform="translate(447.665,165.4756)"><path
             d="m 0,0 c 0,-14.995 -12.161,-27.156 -27.156,-27.156 -7.427,0 -34.412,-0.142 -34.412,-0.142 V 0 27.127 h 34.412 C -12.161,27.127 0,14.995 0,0 Z"
             style="fill:none;stroke:#000000;stroke-width:14.995;stroke-linecap:round;stroke-linejoin:round;stroke-miterlimit:10;stroke-dasharray:none;stroke-opacity:1"
             id="path2834" /></g><g
           id="g2836"
           transform="translate(142.939,230.4453)"><path
             d="m 0,0 c -8.05,5.442 -17.744,8.618 -28.204,8.618 -27.836,0 -50.429,-22.593 -50.429,-50.429 0,-27.864 22.593,-50.457 50.429,-50.457 12.529,0 23.725,4.621 31.776,14.259"
             style="fill:none;stroke:#000000;stroke-width:14.995;stroke-linecap:round;stroke-linejoin:round;stroke-miterlimit:10;stroke-dasharray:none;stroke-opacity:1"
             id="path2838" /></g><g
           id="g2840"
           transform="translate(271.292,239.0635)"><path
             d="m 0,0 v -69.421 c 0,-11.82 5.868,-19.758 15.817,-26.136 4.848,-3.089 10.971,-5.3 18.596,-5.3 6.605,-0.029 12.104,1.502 16.668,3.798 11.594,5.839 18.992,14.712 18.992,27.723 V 0"
             style="fill:none;stroke:#000000;stroke-width:14.995;stroke-linecap:round;stroke-linejoin:round;stroke-miterlimit:10;stroke-dasharray:none;stroke-opacity:1"
             id="path2842" /></g><g
           id="g2844"
           transform="translate(39.3613,105.6348)"><path
             d="m 0,0 c -19.814,22.365 -31.861,51.705 -31.861,83.737 0,69.675 57.004,126.68 126.68,126.68 h 243.638 c 32.656,0 62.533,-12.529 85.068,-32.995 m 21.828,-25.937 c 12.501,-19.616 19.786,-42.86 19.786,-67.748 0,-69.648 -57.005,-126.653 -126.682,-126.653 H 94.819 c -25.512,0 -49.294,7.625 -69.222,20.721"
             style="fill:none;stroke:#000000;stroke-width:14.995;stroke-linecap:round;stroke-linejoin:round;stroke-miterlimit:10;stroke-dasharray:none;stroke-opacity:1"
             id="path2846" /></g><g
           id="g2848"
           transform="translate(239.0059,449.2812)"><path
             d="m 0,0 h -231.506 v -46.573 h 497 V 0 H 33.959"
             style="fill:none;stroke:#000000;stroke-width:14.995;stroke-linecap:round;stroke-linejoin:round;stroke-miterlimit:10;stroke-dasharray:none;stroke-opacity:1"
             id="path2850" /></g><g
           id="g2852"
           transform="translate(75.9282,301.7646)"><path
             d="M 0,0 V 52.64 H 58.252 V 14.287 m 243.638,0 V 52.64 h 58.253 V 0"
             style="fill:none;stroke:#000000;stroke-width:14.995;stroke-linecap:round;stroke-linejoin:round;stroke-miterlimit:10;stroke-dasharray:none;stroke-opacity:1"
             id="path2854" /></g><g
           id="g2856"
           transform="translate(105.0405,354.4043)"><path
             d="M 0,0 V 48.304"
             style="fill:none;stroke:#000000;stroke-width:14.995;stroke-linecap:round;stroke-linejoin:round;stroke-miterlimit:10;stroke-dasharray:none;stroke-opacity:1"
             id="path2858" /></g><g
           id="g2860"
           transform="translate(406.9316,354.4043)"><path
             d="M 0,0 V 48.304"
             style="fill:none;stroke:#000000;stroke-width:14.995;stroke-linecap:round;stroke-linejoin:round;stroke-miterlimit:10;stroke-dasharray:none;stroke-opacity:1"
             id="path2862" /></g></g></g></g></svg>
