<?xml version="1.0" encoding="UTF-8"?>
<svg xmlns="http://www.w3.org/2000/svg" xmlns:xlink="http://www.w3.org/1999/xlink" version="1.1" id="Capa_1" x="0px" y="0px" viewBox="0 0 512 512" style="enable-background:new 0 0 512 512;" xml:space="preserve" width="512" height="512">
<g>
	<path style="fill:none;stroke:#000000;stroke-width:20;stroke-linecap:round;stroke-linejoin:round;stroke-miterlimit:10;" d="&#10;&#9;&#9;M114.069,103.717c8.429-8.899,13.599-20.915,13.599-34.14c0-27.423-22.23-49.653-49.653-49.653s-49.653,22.23-49.653,49.653&#10;&#9;&#9;c0,20.991,13.026,38.941,31.436,46.205"/>
	<g>
		<path style="fill:none;stroke:#000000;stroke-width:20;stroke-linecap:round;stroke-linejoin:round;stroke-miterlimit:10;" d="&#10;&#9;&#9;&#9;M202.521,169.017l-11.58,5.263c-5.035,2.288-10.783,2.435-15.928,0.405L73.397,132.274c-10.481-4.135-15.626-15.983-11.491-26.464&#10;&#9;&#9;&#9;c4.135-10.481,15.984-15.626,26.464-11.491l92.279,36.404l2.512-1.142"/>
	</g>
	
		<circle style="fill:none;stroke:#000000;stroke-width:20;stroke-linecap:round;stroke-linejoin:round;stroke-miterlimit:10;" cx="281.231" cy="53.952" r="43.952"/>
	
		<line style="fill:none;stroke:#000000;stroke-width:20;stroke-linecap:round;stroke-linejoin:round;stroke-miterlimit:10;" x1="331.066" y1="271.219" x2="349.492" y2="207.779"/>
	<g>
		<path style="fill:none;stroke:#000000;stroke-width:20;stroke-linecap:round;stroke-linejoin:round;stroke-miterlimit:10;" d="&#10;&#9;&#9;&#9;M294.035,163.377l45.267,36.243c6.272,5.022,14.802,6.177,22.184,3.005l109.679-47.127c10.309-4.43,15.177-16.294,10.951-26.688&#10;&#9;&#9;&#9;l0,0c-4.286-10.54-16.305-15.609-26.844-11.323l-96.693,39.322l-26.063-28.723l0,0c-14.378-16.985-34.737-27.792-56.862-30.182&#10;&#9;&#9;&#9;c0,0,0,0,0,0l0,0c-27.306-2.534-54.76,2.925-79.02,15.711l-15.212,8.018l23.302,49.333c0,0,41.635-18.502,41.635-18.502l0,0&#10;&#9;&#9;&#9;c15.079,30.681,15.915,66.17,2.816,97.238"/>
	</g>
	
		<line style="fill:none;stroke:#000000;stroke-width:20;stroke-linecap:round;stroke-linejoin:round;stroke-miterlimit:10;" x1="321.415" y1="176.014" x2="346.306" y2="147.676"/>
	<g>
		<path style="fill:none;stroke:#000000;stroke-width:20;stroke-linecap:round;stroke-linejoin:round;stroke-miterlimit:10;" d="&#10;&#9;&#9;&#9;M112.087,434.242l-41.806,8.114c-1.675,0.325-3.345,0.482-4.991,0.482c-12.22,0-23.122-8.641-25.538-21.086&#10;&#9;&#9;&#9;c-2.74-14.12,6.484-27.788,20.604-30.529l133.978-26.004l11.931-18.341"/>
		<path style="fill:none;stroke:#000000;stroke-width:20;stroke-linecap:round;stroke-linejoin:round;stroke-miterlimit:10;" d="&#10;&#9;&#9;&#9;M251.675,372.593l-19.702,30.289c-3.85,5.918-9.938,10.02-16.869,11.365l-14.655,2.844"/>
	</g>
	<g>
		<path style="fill:none;stroke:#000000;stroke-width:20;stroke-linecap:round;stroke-linejoin:round;stroke-miterlimit:10;" d="&#10;&#9;&#9;&#9;M372.826,330.805l32.061,34.223c4.999,5.336,7.524,12.526,6.959,19.815c-0.564,7.289-4.166,14.006-9.926,18.508l-119.121,93.121&#10;&#9;&#9;&#9;c-5.16,4.034-11.364,5.815-17.428,5.489c-7.253-0.39-14.305-3.795-19.13-9.967c-8.858-11.332-6.854-27.699,4.478-36.558&#10;&#9;&#9;&#9;l96.685-75.582l-13.907-14.846"/>
	</g>
	<path style="fill:none;stroke:#000000;stroke-width:20;stroke-linecap:round;stroke-linejoin:round;stroke-miterlimit:10;" d="&#10;&#9;&#9;M330.366,272.012l44.086,55.755l-43.464,38.185l-43.228-25.861c-11.78-6.851-20.29-18.174-23.595-31.395l0,0l12.494,25.561&#10;&#9;&#9;l-22.833,38.773l-52.559-29.868l7.284-36.314c4.68-23.331,19.191-43.512,39.818-55.377l0,0L330.366,272.012z"/>
	
		<line style="fill:none;stroke:#000000;stroke-width:20;stroke-linecap:round;stroke-linejoin:round;stroke-miterlimit:10;" x1="156.267" y1="425.667" x2="156.267" y2="425.667"/>
</g>















</svg>
