<svg width="435" height="435" viewBox="0 0 435 435" fill="none" xmlns="http://www.w3.org/2000/svg">
<path fill-rule="evenodd" clip-rule="evenodd" d="M361.935 434.571H72.6368C32.6598 434.571 0 401.912 0 361.935V72.6368C0 32.6598 32.6598 0 72.6368 0H361.935C401.912 0 434.571 32.6598 434.571 72.6368V361.935C434.571 402.09 402.09 434.571 361.935 434.571ZM217.371 328.917C187.566 328.917 159.547 317.317 138.488 296.257C117.428 275.198 105.828 247.179 105.828 217.374C105.828 187.57 117.428 159.55 138.488 138.491C159.547 117.432 187.566 105.831 217.371 105.831C247.175 105.831 275.195 117.432 296.254 138.491C317.313 159.55 328.914 187.57 328.914 217.374C328.914 247.179 317.313 275.198 296.254 296.257C275.016 317.317 247.175 328.917 217.371 328.917ZM217.371 129.568C169.006 129.568 129.564 168.831 129.564 217.374C129.564 265.739 168.827 305.181 217.371 305.181C265.736 305.181 305.177 265.918 305.177 217.374C304.999 169.009 265.736 129.568 217.371 129.568ZM372.072 80.7495C372.072 92.5777 362.484 102.166 350.656 102.166C338.827 102.166 329.239 92.5777 329.239 80.7495C329.239 68.9213 338.827 59.3327 350.656 59.3327C362.484 59.3327 372.072 68.9213 372.072 80.7495Z" fill="white"/>
</svg>
