<?xml version="1.0" encoding="UTF-8"?>
<svg xmlns="http://www.w3.org/2000/svg" xmlns:xlink="http://www.w3.org/1999/xlink" version="1.1" id="Capa_1" x="0px" y="0px" viewBox="0 0 512.37 512.37" style="enable-background:new 0 0 512.37 512.37;" xml:space="preserve" width="512" height="512">
<g>
	<g>
		<path style="fill:none;stroke:#000000;stroke-width:15;stroke-linecap:round;stroke-linejoin:round;stroke-miterlimit:10;" d="&#10;&#9;&#9;&#9;M372.555,395.651l4.889,25.594c1.091,5.711,3.872,10.962,7.983,15.073l64.165,64.165c5.617,5.617,14.724,5.617,20.34,0&#10;&#9;&#9;&#9;l30.551-30.552c5.617-5.617,5.617-14.724,0-20.34l-64.165-64.165c-4.111-4.111-9.363-6.892-15.073-7.983l-24.593-4.698"/>
		<path style="fill:none;stroke:#000000;stroke-width:15;stroke-linecap:round;stroke-linejoin:round;stroke-miterlimit:10;" d="&#10;&#9;&#9;&#9;M118.786,140.21l-27.661-5.284c-5.711-1.091-10.962-3.872-15.073-7.983L11.886,62.777c-5.617-5.617-5.617-14.724,0-20.34&#10;&#9;&#9;&#9;l30.552-30.552c5.617-5.617,14.724-5.617,20.34,0l64.165,64.165c4.111,4.111,6.892,9.363,7.983,15.073l5.284,27.661"/>
	</g>
	<path style="fill:none;stroke:#000000;stroke-width:15;stroke-linecap:round;stroke-linejoin:round;stroke-miterlimit:10;" d="&#10;&#9;&#9;M196.437,169.59c71.02-67.539,140.869-107.5,196.258-131.021c45.634-19.374,81.458-27.596,100.042-30.904&#10;&#9;&#9;c7.072-1.259,13.228,4.896,11.969,11.969c-3.308,18.584-11.53,54.408-30.904,100.042c-6.002,14.134-13.075,29.21-21.403,45.007"/>
	<path style="fill:none;stroke:#000000;stroke-width:15;stroke-linecap:round;stroke-linejoin:round;stroke-miterlimit:10;" d="&#10;&#9;&#9;M318.706,340.13c-74.646,71.718-148.175,112.822-205.219,136.247c-42.697,17.539-76.144,25.173-93.874,28.33&#10;&#9;&#9;c-7.048,1.255-13.205-4.901-11.95-11.95c3.157-17.73,10.791-51.177,28.33-93.874c23.423-57.037,64.52-130.557,136.224-205.195"/>
	<path style="fill:none;stroke:#000000;stroke-width:15;stroke-linecap:round;stroke-linejoin:round;stroke-miterlimit:10;" d="&#10;&#9;&#9;M435.422,194.831c-22.889,38.176-53.02,79.438-92.643,121.103"/>
	<path style="fill:none;stroke:#000000;stroke-width:15;stroke-linecap:round;stroke-linejoin:round;stroke-miterlimit:10;" d="&#10;&#9;&#9;M284.419,305.843c-40.186,34.869-85.5,47.335-105.364,27.471c-7.148-7.148-10.11-17.593-9.347-29.908"/>
	<path style="fill:none;stroke:#000000;stroke-width:15;stroke-linecap:round;stroke-linejoin:round;stroke-miterlimit:10;" d="&#10;&#9;&#9;M229.744,204.989c39.733-33.694,84.002-45.503,103.571-25.933c19.479,19.479,7.869,63.43-25.468,103.02"/>
	<path style="fill:none;stroke:#000000;stroke-width:15;stroke-linecap:round;stroke-linejoin:round;stroke-miterlimit:10;" d="&#10;&#9;&#9;M178.842,270.124c6.289-13.831,15.653-28.307,27.685-42.173"/>
	<g>
		<path style="fill:none;stroke:#000000;stroke-width:15;stroke-linecap:round;stroke-linejoin:round;stroke-miterlimit:10;" d="&#10;&#9;&#9;&#9;M473.802,119.675c-2.035-20.067-10.754-39.593-26.134-54.973s-34.906-24.099-54.973-26.134&#10;&#9;&#9;&#9;c45.634-19.374,81.458-27.596,100.042-30.904c7.072-1.259,13.228,4.896,11.969,11.969&#10;&#9;&#9;&#9;C501.397,38.217,493.176,74.041,473.802,119.675z"/>
	</g>
	<g>
		<path style="fill:none;stroke:#000000;stroke-width:15;stroke-linecap:round;stroke-linejoin:round;stroke-miterlimit:10;" d="&#10;&#9;&#9;&#9;M119.676,473.801c-20.067-2.035-39.593-10.754-54.973-26.134c-15.38-15.38-24.099-34.906-26.134-54.973&#10;&#9;&#9;&#9;c-19.374,45.634-27.596,81.458-30.904,100.042c-1.259,7.072,4.896,13.228,11.969,11.969&#10;&#9;&#9;&#9;C38.218,501.396,74.042,493.175,119.676,473.801z"/>
	</g>
	<path style="fill:none;stroke:#000000;stroke-width:15;stroke-linecap:round;stroke-linejoin:round;stroke-miterlimit:10;" d="&#10;&#9;&#9;M405.717,427.14L80.727,102.151c-5.916-5.916-5.916-15.508,0-21.425l0,0c5.916-5.916,15.508-5.916,21.425,0l324.989,324.989&#10;&#9;&#9;c5.916,5.916,5.916,15.508,0,21.425l0,0C421.225,433.056,411.633,433.056,405.717,427.14z"/>
</g>















</svg>
