<svg id="Layer_1" enable-background="new 0 0 64 64" height="512" viewBox="0 0 64 64" width="512" xmlns="http://www.w3.org/2000/svg"><g><path d="m14.188 40.24c-.256 0-.512-.098-.707-.293-.391-.391-.391-1.023 0-1.414l10.18-10.18c.391-.391 1.023-.391 1.414 0s.391 1.023 0 1.414l-10.18 10.18c-.195.196-.451.293-.707.293z"/></g><g><path d="m42.064 34.984c-.256 0-.512-.098-.707-.293l-6.786-6.785c-.391-.391-.391-1.023 0-1.414s1.023-.391 1.414 0l6.786 6.785c.391.391.391 1.023 0 1.414-.195.196-.451.293-.707.293z"/></g><g><path d="m40.653 31.089c-3.794 0-7-3.206-7-7s3.206-7 7-7 7 3.206 7 7-3.205 7-7 7zm0-12c-2.71 0-5 2.29-5 5s2.29 5 5 5 5-2.29 5-5-2.289-5-5-5z"/></g><g><path d="m13.329 27.79c-.067 0-.135-.007-.203-.021-2.509-.517-3.417-2.759-3.016-4.706.4-1.945 2.119-3.646 4.627-3.13.541.111.889.641.778 1.181-.111.541-.645.887-1.181.778-1.375-.277-2.08.672-2.265 1.574-.186.904.084 2.061 1.46 2.344.541.111.889.641.778 1.182-.097.473-.514.798-.978.798z"/></g><g><path d="m24.369 30.061c-.067 0-.134-.007-.203-.021l-11.04-2.27c-.541-.111-.889-.64-.778-1.181.111-.542.637-.889 1.181-.778l11.041 2.271c.541.111.889.64.778 1.181-.098.472-.514.798-.979.798z"/></g><g><path d="m35.278 28.199c-.256 0-.512-.098-.707-.293-1.526-1.525-3.449-2.562-5.563-2.996-.541-.111-.89-.64-.778-1.181.111-.542.641-.886 1.181-.778 2.498.514 4.771 1.738 6.574 3.541.391.391.391 1.023 0 1.414-.195.196-.451.293-.707.293z"/></g><g><path d="m20 40.917c-4.283 0-8.566-1.041-12.471-3.123-.487-.261-.671-.866-.412-1.354.259-.486.865-.671 1.353-.412 7.219 3.852 15.84 3.852 23.059 0 .486-.259 1.093-.074 1.353.412.26.487.076 1.093-.412 1.354-3.904 2.082-8.187 3.123-12.47 3.123z"/></g><g><path d="m55.999 37.911c-.159 0-.32-.038-.47-.117-7.219-3.852-15.84-3.852-23.059 0-.488.256-1.094.074-1.353-.412-.26-.487-.076-1.093.412-1.354 7.809-4.164 17.133-4.164 24.941 0 .487.261.671.866.412 1.354-.179.337-.526.529-.883.529z"/></g><g><path d="m20 46.917c-4.283 0-8.566-1.041-12.471-3.123-.487-.261-.671-.866-.412-1.354.259-.486.865-.67 1.353-.412 7.219 3.852 15.84 3.852 23.059 0 .486-.258 1.093-.074 1.353.412.26.487.076 1.093-.412 1.354-3.904 2.082-8.187 3.123-12.47 3.123z"/></g><g><path d="m29.211 24.931c-.067 0-.134-.007-.202-.021l-3.918-.806c-.541-.111-.89-.64-.778-1.181.111-.542.639-.888 1.181-.778l3.918.806c.541.111.89.64.778 1.181-.098.473-.514.799-.979.799z"/></g><g><path d="m17.457 22.514c-.067 0-.134-.007-.203-.021l-2.92-.601c-.541-.111-.889-.64-.778-1.181.111-.542.635-.889 1.181-.778l2.92.601c.541.111.889.64.778 1.181-.097.473-.513.799-.978.799z"/></g><g><path d="m55.999 43.911c-.159 0-.32-.038-.47-.118-2.268-1.209-4.701-2.052-7.234-2.503-.544-.097-.906-.616-.809-1.16.097-.543.62-.907 1.16-.809 2.74.488 5.372 1.399 7.825 2.708.487.26.671.865.412 1.353-.181.337-.527.529-.884.529z"/></g><g><path d="m32.001 43.911c-.357 0-.704-.192-.883-.529-.26-.487-.076-1.094.412-1.354 2.764-1.473 5.737-2.438 8.838-2.867.543-.08 1.052.306 1.128.853.076.548-.307 1.053-.854 1.128-2.867.397-5.616 1.29-8.171 2.652-.15.079-.311.117-.47.117z"/></g><g><path d="m21.37 23.319c-.26 0-.52-.109-.7-.3-.19-.18-.3-.439-.3-.7 0-.26.11-.52.3-.71.36-.369 1.04-.369 1.41 0 .19.19.29.45.29.71 0 .261-.1.521-.29.711-.19.18-.44.289-.71.289z"/></g><g><path d="m44.49 40.92c-.26 0-.52-.11-.7-.3-.19-.181-.3-.44-.3-.7 0-.271.11-.53.3-.71.36-.37 1.04-.37 1.41 0 .19.18.29.439.29.71 0 .26-.1.52-.29.7-.18.19-.44.3-.71.3z"/></g></svg>