<?xml version="1.0" encoding="UTF-8"?>
<svg xmlns="http://www.w3.org/2000/svg" xmlns:xlink="http://www.w3.org/1999/xlink" version="1.1" id="Capa_1" x="0px" y="0px" viewBox="0 0 512.001 512.001" style="enable-background:new 0 0 512.001 512.001;" xml:space="preserve" width="512" height="512">
<g>
	<path style="fill:none;stroke:#000000;stroke-width:15;stroke-linecap:round;stroke-linejoin:round;stroke-miterlimit:10;" d="&#10;&#9;&#9;M229.391,351.948l92.505-55.815c4.819-2.907,10.34-4.444,15.968-4.444H488.02v85.051c0,10.107-8.194,18.301-18.301,18.301h-90.791&#10;&#9;&#9;c-7.622,0-14.447-4.724-17.13-11.859l-12.283-32.661c-3.947-10.496-16.451-14.836-26.052-9.043l-84.412,50.932&#10;&#9;&#9;c-2.853,1.722-6.122,2.631-9.455,2.631H44.07c-10.107,0-18.301-8.194-18.301-18.301v-20.348h187.654&#10;&#9;&#9;C219.051,356.392,224.572,354.855,229.391,351.948z"/>
	<path style="fill:none;stroke:#000000;stroke-width:15;stroke-linecap:round;stroke-linejoin:round;stroke-miterlimit:10;" d="&#10;&#9;&#9;M286.192,445.371h93.75c6.51,0,11.79-5.28,11.79-11.8v-38.53h61.18v38.54c0,6.52,5.28,11.8,11.79,11.8h14.47&#10;&#9;&#9;c8.02,0,14.52,6.5,14.52,14.52v30.08c0,8.02-6.5,14.52-14.52,14.52H40.802c-27,0-40.95-32.26-22.46-51.93l54.09-57.53h48.36v38.53&#10;&#9;&#9;c0,6.52,5.28,11.8,11.8,11.8h38.64c6.52,0,11.8-5.28,11.8-11.8v-38.53h39.94v38.53c0,6.52,5.28,11.8,11.8,11.8h17.98"/>
	
		<line style="fill:none;stroke:#000000;stroke-width:15;stroke-linecap:round;stroke-linejoin:round;stroke-miterlimit:10;" x1="135.495" y1="192.993" x2="108.573" y2="203.4"/>
	<path style="fill:none;stroke:#000000;stroke-width:15;stroke-linecap:round;stroke-linejoin:round;stroke-miterlimit:10;" d="&#10;&#9;&#9;M232.117,115.583c-4.004,8.517-8.868,16.546-14.486,23.98"/>
	<path style="fill:none;stroke:#000000;stroke-width:15;stroke-linecap:round;stroke-linejoin:round;stroke-miterlimit:10;" d="&#10;&#9;&#9;M469.922,95.231c3.4,18.64,9.18,36.79,16.91,54.16c17.9,40.19,20.27,86.04,5.9,128.4l-4.71,13.89"/>
	<path style="fill:none;stroke:#000000;stroke-width:15;stroke-linecap:round;stroke-linejoin:round;stroke-miterlimit:10;" d="&#10;&#9;&#9;M256.092,29.031l1.35-5.5c2.39-9.76,11.36-16.46,21.4-16.01l164.23,7.62c10.41,0.47,18.9,8.51,19.95,18.88l2.68,26.47"/>
	
		<polyline style="fill:none;stroke:#000000;stroke-width:15;stroke-linecap:round;stroke-linejoin:round;stroke-miterlimit:10;" points="&#10;&#9;&#9;248.44,60.284 242.291,85.379 242.291,85.39 &#9;"/>
	<path style="fill:none;stroke:#000000;stroke-width:15;stroke-linecap:round;stroke-linejoin:round;stroke-miterlimit:10;" d="&#10;&#9;&#9;M167.632,180.174c9.569-4.514,18.49-10.11,26.625-16.599"/>
	<path style="fill:none;stroke:#000000;stroke-width:15;stroke-linecap:round;stroke-linejoin:round;stroke-miterlimit:10;" d="&#10;&#9;&#9;M27.642,256.471c9.72-17.44,25.36-31.58,45.12-39.22l5.17-2"/>
	<path style="fill:none;stroke:#000000;stroke-width:15;stroke-linecap:round;stroke-linejoin:round;stroke-miterlimit:10;" d="&#10;&#9;&#9;M17.092,289.071c-1.01,8.7-0.74,17.66,0.97,26.64l7.71,40.68"/>
	<path style="fill:none;stroke:#000000;stroke-width:15;stroke-linecap:round;stroke-linejoin:round;stroke-miterlimit:10;" d="&#10;&#9;&#9;M475.289,117.919c0,0-119.537,31.883-101.545,173.77"/>
	<path style="fill:none;stroke:#000000;stroke-width:15;stroke-linecap:round;stroke-linejoin:round;stroke-miterlimit:10;" d="&#10;&#9;&#9;M294.723,64.867c-0.534,0-1.073-0.026-1.616-0.081l-44.762-4.509c-8.754-0.882-15.135-8.693-14.253-17.446&#10;&#9;&#9;c0.882-8.754,8.687-15.145,17.446-14.253l44.762,4.509c8.754,0.882,15.135,8.693,14.253,17.446&#10;&#9;&#9;C309.727,58.744,302.803,64.867,294.723,64.867z"/>
	<path style="fill:none;stroke:#000000;stroke-width:15;stroke-linecap:round;stroke-linejoin:round;stroke-miterlimit:10;" d="&#10;&#9;&#9;M115.477,251.753c-4.476,0-8.926-1.877-12.077-5.534l-22.675-26.325c-5.741-6.666-4.993-16.725,1.673-22.467&#10;&#9;&#9;c6.665-5.741,16.725-4.992,22.467,1.673l22.675,26.325c5.741,6.666,4.993,16.725-1.673,22.467&#10;&#9;&#9;C122.859,250.484,119.159,251.753,115.477,251.753z"/>
	<path style="fill:none;stroke:#000000;stroke-width:15;stroke-linecap:round;stroke-linejoin:round;stroke-miterlimit:10;" d="&#10;&#9;&#9;M178.155,229.162c-4.077,0-8.153-1.555-11.265-4.666l-30.364-30.365c-6.221-6.221-6.221-16.308,0-22.528&#10;&#9;&#9;c6.222-6.221,16.307-6.221,22.529,0l30.364,30.365c6.221,6.221,6.221,16.308,0,22.529&#10;&#9;&#9;C186.309,227.607,182.232,229.162,178.155,229.162z"/>
	<path style="fill:none;stroke:#000000;stroke-width:15;stroke-linecap:round;stroke-linejoin:round;stroke-miterlimit:10;" d="&#10;&#9;&#9;M238.402,183.101c-2.306,0-4.647-0.502-6.865-1.564l-35.707-17.088c-7.936-3.798-11.291-13.31-7.493-21.246&#10;&#9;&#9;c3.797-7.936,13.311-11.291,21.246-7.493l35.707,17.088c7.936,3.798,11.291,13.31,7.493,21.246&#10;&#9;&#9;C250.047,179.761,244.344,183.101,238.402,183.101z"/>
	<path style="fill:none;stroke:#000000;stroke-width:15;stroke-linecap:round;stroke-linejoin:round;stroke-miterlimit:10;" d="&#10;&#9;&#9;M276.336,128.251c-1.527,0-3.079-0.221-4.616-0.686l-41.306-12.488c-8.421-2.546-13.184-11.437-10.639-19.859&#10;&#9;&#9;s11.437-13.186,19.859-10.639l41.306,12.488c8.421,2.546,13.184,11.437,10.639,19.859&#10;&#9;&#9;C289.498,123.811,283.175,128.251,276.336,128.251z"/>
	<path style="fill:none;stroke:#000000;stroke-width:15;stroke-linecap:round;stroke-linejoin:round;stroke-miterlimit:10;" d="&#10;&#9;&#9;M43.845,235.558c20.221,40.325,59.557,67.406,134.716,44.53C364.125,223.61,344.595,10.571,344.595,10.571"/>
</g>















</svg>
