<svg width="498" height="435" viewBox="0 0 498 435" fill="none" xmlns="http://www.w3.org/2000/svg">
<path d="M0 372.285C53.6039 375.301 100.478 362.771 146.192 329.587C100.014 321.698 67.9912 300.581 50.5873 256.955C64.0463 255.099 75.881 258.579 89.8041 253.01C44.322 233.054 14.8514 203.119 13.6911 151.372C28.0783 152.532 38.9848 162.046 56.1566 160.654C14.3874 119.813 1.62436 75.2588 27.8462 21.1908C71.4719 71.3139 122.523 105.425 184.945 121.437C188.426 122.365 191.674 123.293 195.155 123.99C211.167 127.702 230.195 135.592 239.941 134.432C256.649 132.343 239.941 113.083 244.118 88.0216C257.345 10.0523 343.204 -25.4516 406.786 20.2626C425.35 33.7216 439.97 33.4895 458.302 25.3677C467.816 21.1908 477.562 17.0139 488.933 12.1408C486.38 34.4177 469.208 46.7164 455.517 63.1921C471.065 66.6729 483.595 62.2639 497.982 57.6229C493.109 73.6344 481.043 82.6844 470.136 91.5024C458.766 100.552 454.357 110.067 453.893 124.918C446.931 349.776 191.443 523.582 16.7079 385.28C-0.231882 371.821 16.2436 385.28 0 372.285Z" fill="white"/>
</svg>
