<svg id="Capa_1" enable-background="new 0 0 512 512" height="512" viewBox="0 0 512 512" width="512" xmlns="http://www.w3.org/2000/svg"><g><path d="m504.5 465.002h-64.724c8.692-9.191 13.474-21.152 13.474-33.854 0-13.173-5.13-25.558-14.445-34.873-6.367-6.367-14.356-10.869-23.102-13.019-7.539-1.853-15.771-1.757-23.808.277l-60.472 15.309 6.542-42.798c4.197-24.145 10.927-47.928 20.004-70.689.026-.066.052-.132.076-.199l16.535-45.153c11.533-31.494 5.224-66.951-16.466-92.533l-57.872-68.26-23.42-39.708c-3.531-5.986-10.407-8.779-17.112-6.949-1.331.363-2.57.892-3.709 1.552-1.139-.66-2.378-1.189-3.709-1.552-6.711-1.831-13.583.963-17.112 6.949l-23.408 39.687-38.857 45.331c-2.695 3.145-2.332 7.88.813 10.575 3.144 2.696 7.879 2.331 10.575-.813l34.097-39.777 14.423 13.972-30.063 38.861c-19.992 25.845-25.01 60.8-13.094 91.225l6.18 15.777c8.862 22.628 30.292 37.249 54.594 37.249h11.123c24.302 0 45.732-14.621 54.594-37.249l6.18-15.778c11.916-30.425 6.898-65.38-13.094-91.224l-30.063-38.861 2.227-2.157 12.164-11.785 53.104 62.633c18.207 21.474 23.503 51.237 13.821 77.674l-16.498 45.053c-9.45 23.717-16.456 48.497-20.823 73.654-.009.05-.017.099-.024.15l-7.511 49.136-57.779 14.627-61.648-15.607-7.361-48.156c-.008-.05-.016-.1-.024-.15-4.369-25.169-11.38-49.96-20.836-73.687l-16.759-44.445c-10.104-26.799-4.803-56.954 13.837-78.699 2.695-3.145 2.332-7.88-.814-10.576-3.145-2.696-7.88-2.331-10.575.813-22.205 25.904-28.521 61.828-16.483 93.753l16.783 44.51c.017.044.033.088.051.132 9.077 22.76 15.807 46.543 20.004 70.687l6.392 41.82-56.601-14.329c-8.037-2.035-16.27-2.13-23.807-.277-8.745 2.15-16.733 6.652-23.103 13.02-9.314 9.315-14.444 21.7-14.444 34.873 0 12.703 4.782 24.663 13.474 33.854h-68.447c-4.143 0-7.5 3.358-7.5 7.5s3.357 7.5 7.5 7.5h210.393c4.143 0 7.5-3.358 7.5-7.5s-3.357-7.5-7.5-7.5h-108.407c-.643-.281-1.335-.48-2.067-.572-8.605-1.082-14.742-3.863-19.896-9.016-6.482-6.482-10.052-15.1-10.052-24.266 0-9.167 3.569-17.785 10.051-24.266 4.432-4.431 9.991-7.564 16.076-9.06 5.163-1.269 10.884-1.181 16.545.252l135.846 34.39c.016.004.031.008.047.012l54.324 13.753v18.774h-62.468c-4.143 0-7.5 3.358-7.5 7.5s3.357 7.5 7.5 7.5h256.608c4.143 0 7.5-3.358 7.5-7.5 0-4.14-3.357-7.497-7.5-7.497zm-240.996-417.911c.082-.059.261-.108.291-.115.001 0 .042.037.107.147l20.745 35.173-12.465 12.076-2.171 2.103c-4.234-6.845-6.511-14.764-6.511-22.93v-26.313c0-.076.006-.125.004-.141zm-15.405.032c.039-.066.069-.105.074-.12.102-.012.279.039.311.049 0 0 .017.053.017.18v26.312c0 8.166-2.276 16.085-6.511 22.93l-.596-.578-14.039-13.601zm49.277 109.394c16.783 21.695 20.995 51.037 10.992 76.576l-6.18 15.778c-6.596 16.839-22.542 27.72-40.627 27.72h-11.123c-18.085 0-34.031-10.881-40.627-27.72l-6.18-15.778c-10.003-25.539-5.791-54.881 10.992-76.576l34.074-44.047c2.816-3.17 5.258-6.606 7.302-10.246 2.044 3.64 4.486 7.076 7.302 10.246zm-8.955 268.683 107.156-27.127c5.663-1.434 11.385-1.521 16.546-.252 6.085 1.496 11.645 4.629 16.075 9.06 6.482 6.482 10.052 15.1 10.052 24.266s-3.569 17.784-10.051 24.266c-6.9 6.9-15.444 9.588-30.475 9.588h-8.375c-3.275-18.231-19.241-32.112-38.4-32.112h-32.155zm36.939 22.69h25.59c10.845 0 20.03 7.224 23.007 17.112h-48.597z"/><path d="m256 159.546c-17.989 0-32.624 14.635-32.624 32.624v33.058c0 17.989 14.635 32.624 32.624 32.624s32.624-14.635 32.624-32.624v-33.058c0-17.989-14.635-32.624-32.624-32.624zm17.624 65.682c0 9.717-7.906 17.624-17.624 17.624s-17.624-7.906-17.624-17.624v-33.058c0-9.718 7.906-17.624 17.624-17.624s17.624 7.906 17.624 17.624z"/></g></svg>